<svg data-v-423bf9ae="" xmlns="http://www.w3.org/2000/svg" viewBox="0 0 586 90" class="iconLeft"><!----><!----><!----><g data-v-423bf9ae="" id="807b6485-48ba-46b9-ae87-b17d3e41a47a" fill="white" transform="matrix(4.823151657844923,0,0,4.823151657844923,108.5864116368617,-6.028940441652608)"><path d="M2.73 12.36L2.73 4.36L1.50 4.36L1.50 13.52L7.78 13.52L7.78 12.36ZM12.95 6.55C10.87 6.55 9.38 8.20 9.38 10.14C9.38 12.09 10.87 13.73 12.95 13.73C15.03 13.73 16.52 12.09 16.52 10.14C16.52 8.20 15.03 6.55 12.95 6.55ZM12.95 7.64C14.41 7.64 15.35 8.82 15.35 10.14C15.35 11.47 14.41 12.63 12.95 12.63C11.48 12.63 10.54 11.47 10.54 10.14C10.54 8.82 11.48 7.64 12.95 7.64ZM19.97 6.69L19.97 4.72L19.46 4.72C19.00 6.07 18.43 7.01 17.54 7.41L17.54 7.74L18.85 7.74L18.85 11.80C18.85 12.96 19.46 13.73 20.62 13.73C21.30 13.73 21.66 13.54 22.03 13.25L22.03 12.33C21.75 12.50 21.41 12.66 20.86 12.66C20.26 12.66 19.97 12.32 19.97 11.74L19.97 7.74L21.97 7.74L21.97 6.69ZM25.89 6.69L25.89 4.72L25.38 4.72C24.92 6.07 24.35 7.01 23.46 7.41L23.46 7.74L24.77 7.74L24.77 11.80C24.77 12.96 25.38 13.73 26.54 13.73C27.22 13.73 27.58 13.54 27.95 13.25L27.95 12.33C27.67 12.50 27.33 12.66 26.78 12.66C26.18 12.66 25.89 12.32 25.89 11.74L25.89 7.74L27.89 7.74L27.89 6.69ZM35.89 9.87C35.89 8.00 34.85 6.55 32.74 6.55C30.82 6.55 29.45 8.20 29.45 10.14C29.45 12.09 30.94 13.73 33.02 13.73C34.08 13.73 34.79 13.26 35.07 12.99L35.07 11.85C34.62 12.18 34.00 12.63 33.02 12.63C31.71 12.63 30.80 11.69 30.64 10.54L35.89 10.54ZM30.67 9.58C30.86 8.50 31.62 7.64 32.74 7.64C33.70 7.64 34.64 8.26 34.78 9.58ZM40.96 6.55C40.18 6.55 39.38 7.15 38.86 8.05L38.86 6.69L37.73 6.69L37.73 13.52L38.86 13.52L38.86 9.39C39.36 8.48 39.87 7.72 40.80 7.72C41.15 7.72 41.51 7.86 41.79 8.08L41.79 6.74C41.55 6.62 41.28 6.55 40.96 6.55ZM49.67 6.69L48.33 6.69L46.01 11.72L43.61 6.69L42.27 6.69L45.29 13.11L43.34 16.80L44.64 16.80ZM64.00 13.52L64.00 4.36L63.51 4.36L59.77 8.44L55.97 4.36L55.48 4.36L55.48 13.52L56.71 13.52L56.71 6.82L59.60 9.97L59.95 9.97L62.77 6.82L62.77 13.52ZM69.48 6.55C67.61 6.55 66.19 7.96 66.19 10.21C66.19 12.29 67.61 13.73 69.37 13.73C70.41 13.73 71.24 13.08 71.72 12.36L71.72 13.52L72.84 13.52L72.84 6.69L71.72 6.69L71.72 7.60C71.13 6.95 70.26 6.55 69.48 6.55ZM69.69 7.64C70.52 7.64 71.13 8.07 71.71 8.78L71.72 10.09C71.74 11.55 70.79 12.63 69.55 12.63C68.22 12.63 67.35 11.54 67.35 10.21C67.35 8.89 68.22 7.64 69.69 7.64ZM77.21 6.55C75.74 6.55 74.80 7.41 74.80 8.57C74.80 9.35 75.04 9.98 76.11 10.38L77.12 10.75C77.77 10.98 78.11 11.20 78.11 11.63C78.11 12.21 77.57 12.63 76.71 12.63C76.03 12.63 75.07 12.21 74.69 11.92L74.69 13.13C75.00 13.36 75.99 13.73 76.79 13.73C78.26 13.73 79.31 12.80 79.31 11.63C79.31 10.86 78.87 10.25 77.98 9.94L76.84 9.53C76.21 9.31 76.00 8.91 76.00 8.57C76.00 8.13 76.43 7.64 77.29 7.64C77.97 7.64 78.70 7.98 79.08 8.27L79.08 7.07C78.76 6.84 78.01 6.55 77.21 6.55ZM82.91 6.69L82.91 4.72L82.39 4.72C81.94 6.07 81.36 7.01 80.47 7.41L80.47 7.74L81.79 7.74L81.79 11.80C81.79 12.96 82.39 13.73 83.55 13.73C84.23 13.73 84.59 13.54 84.96 13.25L84.96 12.33C84.68 12.50 84.34 12.66 83.79 12.66C83.19 12.66 82.91 12.32 82.91 11.74L82.91 7.74L84.90 7.74L84.90 6.69ZM92.90 9.87C92.90 8.00 91.86 6.55 89.76 6.55C87.83 6.55 86.46 8.20 86.46 10.14C86.46 12.09 87.95 13.73 90.03 13.73C91.10 13.73 91.81 13.26 92.08 12.99L92.08 11.85C91.63 12.18 91.01 12.63 90.03 12.63C88.72 12.63 87.81 11.69 87.65 10.54L92.90 10.54ZM87.68 9.58C87.87 8.50 88.63 7.64 89.76 7.64C90.71 7.64 91.66 8.26 91.79 9.58ZM97.97 6.55C97.19 6.55 96.39 7.15 95.87 8.05L95.87 6.69L94.75 6.69L94.75 13.52L95.87 13.52L95.87 9.39C96.37 8.48 96.88 7.72 97.81 7.72C98.16 7.72 98.52 7.86 98.81 8.08L98.81 6.74C98.56 6.62 98.29 6.55 97.97 6.55Z"></path></g><!----><g data-v-423bf9ae="" id="d3699133-2095-4de1-9634-bda98f002507" transform="matrix(2.994410458179972,0,0,2.994410458179972,0.08943266912044834,-1.9385669710569857)" stroke="none" fill="white"><path d="M17.572 23.933l4.106 7.095L32 13.189h-8.981V7.582L11.51.972 0 7.582v13.222l11.51 6.611 6.062-3.482zm10.96-8.744l-6.855 11.846-6.855-11.846h13.71z"></path></g><!----></svg>